<?xml version="1.0" encoding="UTF-8"?>
<svg xmlns="http://www.w3.org/2000/svg" xmlns:xlink="http://www.w3.org/1999/xlink" width="24" height="24" viewBox="0 0 24 24" version="1.1">
    <title>Public/ic_public_settings_filled</title>
    <defs>
        <path d="M13.4894964,1.25 C14.1901033,1.25 14.8231865,1.66785112 15.0986042,2.31205231 L15.0986042,2.31205231 L15.92125,4.23625 L16.77175,4.72725 L18.8556101,4.47607817 C19.5285537,4.39491431 20.1856012,4.70961774 20.5451004,5.27951678 L20.5451004,5.27951678 L20.5800481,5.33735213 L22.0680131,7.91013134 C22.4194652,8.51781272 22.3737758,9.27669833 21.9519545,9.83782407 L21.9519545,9.83782407 L20.69375,11.51125 L20.69375,12.4885 L21.9519801,14.16219 C22.3597241,14.70461 22.4160026,15.4318142 22.1018413,16.0285992 L22.1018413,16.0285992 L22.0680196,16.0898574 L20.5800481,18.6626479 C20.2293867,19.2689622 19.5509852,19.6077912 18.8556101,19.5239218 L18.8556101,19.5239218 L16.77175,19.2725 L15.92125,19.7635 L15.0986042,21.6879477 C14.832071,22.3113682 14.2305752,22.7228063 13.5570765,22.748702 L13.5570765,22.748702 L13.4894964,22.75 L10.5105451,22.75 C9.80990141,22.75 9.17679241,22.3321056 8.90139751,21.6878548 L8.90139751,21.6878548 L8.0785,19.7635 L7.228,19.2725 L5.14438986,19.5239218 C4.47144629,19.6050857 3.81439883,19.2903823 3.45489956,18.7204832 L3.45489956,18.7204832 L3.41995189,18.6626479 L1.9319804,16.0898574 C1.58053408,15.482186 1.62621577,14.7233142 2.04801988,14.16219 L2.04801988,14.16219 L3.306,12.4885 L3.306,11.51125 L2.04804545,9.83782407 C1.64028496,9.29540252 1.58399872,8.56818536 1.89816473,7.97139057 L1.89816473,7.97139057 L1.93198692,7.91013134 L3.41995189,5.33735213 C3.77061333,4.73103782 4.44901483,4.39220884 5.14438986,4.47607817 L5.14438986,4.47607817 L7.228,4.72725 L8.0785,4.23625 L8.90139751,2.31214525 C9.1679087,1.68867667 9.7694279,1.27719647 10.4429614,1.25129813 L10.4429614,1.25129813 L10.5105451,1.25 Z M12,7.5 C9.51471863,7.5 7.5,9.51471863 7.5,12 C7.5,14.4852814 9.51471863,16.5 12,16.5 C14.4852814,16.5 16.5,14.4852814 16.5,12 C16.5,9.51471863 14.4852814,7.5 12,7.5 Z M12,9 C13.6568542,9 15,10.3431458 15,12 C15,13.6568542 13.6568542,15 12,15 C10.3431458,15 9,13.6568542 9,12 C9,10.3431458 10.3431458,9 12,9 Z" id="_path-1"/>
    </defs>
    <g id="_Public/ic_public_settings_filled" stroke="none" stroke-width="1" fill="none" fill-rule="evenodd">
        <mask id="_mask-2" fill="white">
            <use xlink:href="#_path-1"/>
        </mask>
        <use id="_形状结合" fill="#53D769" fill-rule="nonzero" xlink:href="#_path-1"/>
    </g>
</svg>